HIERARCHY
ROOT Hips
{
	OFFSET 0.000000 97.167313 0.000000
	CHANNELS 6 Xposition Yposition Zposition Xrotation Yrotation Zrotation
	JOINT Spine
	{
		OFFSET 0.000000 13.784798 0.064400
		CHANNELS 3 Xrotation Yrotation Zrotation
		JOINT Spine1
		{
			OFFSET 0.000000 12.037903 0.404700
			CHANNELS 3 Xrotation Yrotation Zrotation
			JOINT Spine2
			{
				OFFSET 0.000000 17.795601 0.420200
				CHANNELS 3 Xrotation Yrotation Zrotation
				JOINT Neck
				{
					OFFSET 0.000000 39.131302 11.954600
					CHANNELS 3 Xrotation Yrotation Zrotation
					JOINT Head
					{
						OFFSET 0.000000 14.456192 15.627699
						CHANNELS 3 Xrotation Yrotation Zrotation
						JOINT HeadTop_End
						{
							OFFSET 0.000000 15.703506 7.603401
							CHANNELS 3 Xrotation Yrotation Zrotation
							End Site
							{
								OFFSET 0.000000 17.447403 0.000000
							}
						}
					}
				}
				JOINT LeftShoulder
				{
					OFFSET 17.399500 24.608795 1.168800
					CHANNELS 3 Xrotation Yrotation Zrotation
					JOINT LeftArm
					{
						OFFSET 18.980635 5.765305 1.818600
						CHANNELS 3 Xrotation Yrotation Zrotation
						JOINT LeftForeArm
						{
							OFFSET 49.290169 0.000000 0.000000
							CHANNELS 3 Xrotation Yrotation Zrotation
							JOINT LeftHand
							{
								OFFSET 31.562012 0.000000 0.000000
								CHANNELS 3 Xrotation Yrotation Zrotation
								JOINT LeftHandThumb1
								{
									OFFSET 6.133995 -4.388519 7.076070
									CHANNELS 3 Xrotation Yrotation Zrotation
									JOINT LeftHandThumb2
									{
										OFFSET 6.037666 -3.485840 3.485847
										CHANNELS 3 Xrotation Yrotation Zrotation
										JOINT LeftHandThumb3
										{
											OFFSET 6.496506 -3.750763 3.750761
											CHANNELS 3 Xrotation Yrotation Zrotation
											JOINT LeftHandThumb4
											{
												OFFSET 5.616882 -3.242905 3.242910
												CHANNELS 3 Xrotation Yrotation Zrotation
												End Site
												{
													OFFSET -1.254608 7.132141 0.375429
												}
											}
										}
									}
								}
								JOINT LeftHandPinky1
								{
									OFFSET 18.920792 -0.453171 -11.426712
									CHANNELS 3 Xrotation Yrotation Zrotation
									JOINT LeftHandPinky2
									{
										OFFSET 4.919586 0.000000 0.000000
										CHANNELS 3 Xrotation Yrotation Zrotation
										JOINT LeftHandPinky3
										{
											OFFSET 5.233047 0.000000 0.000000
											CHANNELS 3 Xrotation Yrotation Zrotation
											JOINT LeftHandPinky4
											{
												OFFSET 5.571716 0.000000 0.000000
												CHANNELS 3 Xrotation Yrotation Zrotation
												End Site
												{
													OFFSET -3.459808 4.342407 -0.466164
												}
											}
										}
									}
								}
								JOINT LeftHandRing1
								{
									OFFSET 22.726120 -0.094986 -6.500475
									CHANNELS 3 Xrotation Yrotation Zrotation
									JOINT LeftHandRing2
									{
										OFFSET 6.408615 0.000000 0.000000
										CHANNELS 3 Xrotation Yrotation Zrotation
										JOINT LeftHandRing3
										{
											OFFSET 6.150223 0.000000 0.000000
											CHANNELS 3 Xrotation Yrotation Zrotation
											JOINT LeftHandRing4
											{
												OFFSET 6.145386 0.000000 0.000000
												CHANNELS 3 Xrotation Yrotation Zrotation
												End Site
												{
													OFFSET -3.671402 4.923981 -0.202372
												}
											}
										}
									}
								}
								JOINT LeftHandMiddle1
								{
									OFFSET 23.373947 0.000000 0.000001
									CHANNELS 3 Xrotation Yrotation Zrotation
									JOINT LeftHandMiddle2
									{
										OFFSET 6.996567 0.000000 0.000000
										CHANNELS 3 Xrotation Yrotation Zrotation
										JOINT LeftHandMiddle3
										{
											OFFSET 7.015945 0.000000 0.000000
											CHANNELS 3 Xrotation Yrotation Zrotation
											JOINT LeftHandMiddle4
											{
												OFFSET 7.721573 0.000000 0.000000
												CHANNELS 3 Xrotation Yrotation Zrotation
												End Site
												{
													OFFSET -4.651108 6.158463 0.251582
												}
											}
										}
									}
								}
								JOINT LeftHandIndex1
								{
									OFFSET 21.310577 -0.490082 6.209344
									CHANNELS 3 Xrotation Yrotation Zrotation
									JOINT LeftHandIndex2
									{
										OFFSET 7.536453 0.000000 0.000000
										CHANNELS 3 Xrotation Yrotation Zrotation
										JOINT LeftHandIndex3
										{
											OFFSET 7.512344 0.000000 0.000000
											CHANNELS 3 Xrotation Yrotation Zrotation
											JOINT LeftHandIndex4
											{
												OFFSET 10.212402 0.000000 0.000001
												CHANNELS 3 Xrotation Yrotation Zrotation
												End Site
												{
													OFFSET -5.180801 8.690506 1.388433
												}
											}
										}
									}
								}
							}
						}
					}
				}
				JOINT RightShoulder
				{
					OFFSET -17.399500 24.608795 1.168800
					CHANNELS 3 Xrotation Yrotation Zrotation
					JOINT RightArm
					{
						OFFSET -18.980635 5.765305 1.818600
						CHANNELS 3 Xrotation Yrotation Zrotation
						JOINT RightForeArm
						{
							OFFSET -49.290169 0.000000 0.000000
							CHANNELS 3 Xrotation Yrotation Zrotation
							JOINT RightHand
							{
								OFFSET -31.562012 0.000000 0.000000
								CHANNELS 3 Xrotation Yrotation Zrotation
								JOINT RightHandThumb1
								{
									OFFSET -6.133995 -4.388519 7.076070
									CHANNELS 3 Xrotation Yrotation Zrotation
									JOINT RightHandThumb2
									{
										OFFSET -6.037666 -3.485840 3.485847
										CHANNELS 3 Xrotation Yrotation Zrotation
										JOINT RightHandThumb3
										{
											OFFSET -6.496506 -3.750763 3.750761
											CHANNELS 3 Xrotation Yrotation Zrotation
											JOINT RightHandThumb4
											{
												OFFSET -5.616882 -3.242905 3.242910
												CHANNELS 3 Xrotation Yrotation Zrotation
												End Site
												{
													OFFSET 1.254608 7.132141 0.375429
												}
											}
										}
									}
								}
								JOINT RightHandIndex1
								{
									OFFSET -21.310577 -0.490082 6.209344
									CHANNELS 3 Xrotation Yrotation Zrotation
									JOINT RightHandIndex2
									{
										OFFSET -7.536453 0.000000 0.000000
										CHANNELS 3 Xrotation Yrotation Zrotation
										JOINT RightHandIndex3
										{
											OFFSET -7.512344 0.000000 0.000000
											CHANNELS 3 Xrotation Yrotation Zrotation
											JOINT RightHandIndex4
											{
												OFFSET -10.212402 0.000000 0.000001
												CHANNELS 3 Xrotation Yrotation Zrotation
												End Site
												{
													OFFSET 5.180801 8.690506 1.388433
												}
											}
										}
									}
								}
								JOINT RightHandMiddle1
								{
									OFFSET -23.373947 0.000000 0.000001
									CHANNELS 3 Xrotation Yrotation Zrotation
									JOINT RightHandMiddle2
									{
										OFFSET -6.996567 0.000000 0.000000
										CHANNELS 3 Xrotation Yrotation Zrotation
										JOINT RightHandMiddle3
										{
											OFFSET -7.015945 0.000000 0.000000
											CHANNELS 3 Xrotation Yrotation Zrotation
											JOINT RightHandMiddle4
											{
												OFFSET -7.721573 0.000000 0.000000
												CHANNELS 3 Xrotation Yrotation Zrotation
												End Site
												{
													OFFSET 4.651108 6.158463 0.251582
												}
											}
										}
									}
								}
								JOINT RightHandRing1
								{
									OFFSET -22.726120 -0.094986 -6.500475
									CHANNELS 3 Xrotation Yrotation Zrotation
									JOINT RightHandRing2
									{
										OFFSET -6.408615 0.000000 0.000000
										CHANNELS 3 Xrotation Yrotation Zrotation
										JOINT RightHandRing3
										{
											OFFSET -6.150223 0.000000 0.000000
											CHANNELS 3 Xrotation Yrotation Zrotation
											JOINT RightHandRing4
											{
												OFFSET -6.145386 0.000000 0.000000
												CHANNELS 3 Xrotation Yrotation Zrotation
												End Site
												{
													OFFSET 3.671402 4.923981 -0.202372
												}
											}
										}
									}
								}
								JOINT RightHandPinky1
								{
									OFFSET -18.920792 -0.453171 -11.426712
									CHANNELS 3 Xrotation Yrotation Zrotation
									JOINT RightHandPinky2
									{
										OFFSET -4.919586 0.000000 0.000000
										CHANNELS 3 Xrotation Yrotation Zrotation
										JOINT RightHandPinky3
										{
											OFFSET -5.233047 0.000000 0.000000
											CHANNELS 3 Xrotation Yrotation Zrotation
											JOINT RightHandPinky4
											{
												OFFSET -5.571716 0.000000 0.000000
												CHANNELS 3 Xrotation Yrotation Zrotation
												End Site
												{
													OFFSET 3.459808 4.342407 -0.466164
												}
											}
										}
									}
								}
							}
						}
					}
				}
			}
		}
	}
	JOINT LeftUpLeg
	{
		OFFSET 19.899099 -7.885101 -3.429500
		CHANNELS 3 Xrotation Yrotation Zrotation
		JOINT LeftLeg
		{
			OFFSET 1.745560 -36.997807 10.304700
			CHANNELS 3 Xrotation Yrotation Zrotation
			JOINT LeftFoot
			{
				OFFSET -1.745558 -29.803308 -13.615400
				CHANNELS 3 Xrotation Yrotation Zrotation
				JOINT LeftToeBase
				{
					OFFSET 1.181900 -18.539904 15.226099
					CHANNELS 3 Xrotation Yrotation Zrotation
					JOINT LeftToe_End
					{
						OFFSET -0.863701 1.402801 16.534700
						CHANNELS 3 Xrotation Yrotation Zrotation
						End Site
						{
							OFFSET 0.000000 16.616566 0.000000
						}
					}
				}
			}
		}
	}
	JOINT RightUpLeg
	{
		OFFSET -19.899099 -7.885101 -3.429500
		CHANNELS 3 Xrotation Yrotation Zrotation
		JOINT RightLeg
		{
			OFFSET -1.745560 -36.997807 10.304700
			CHANNELS 3 Xrotation Yrotation Zrotation
			JOINT RightFoot
			{
				OFFSET 1.745558 -29.803308 -13.615400
				CHANNELS 3 Xrotation Yrotation Zrotation
				JOINT RightToeBase
				{
					OFFSET -1.181900 -18.539904 15.226099
					CHANNELS 3 Xrotation Yrotation Zrotation
					JOINT RightToe_End
					{
						OFFSET 0.863701 1.402801 16.534700
						CHANNELS 3 Xrotation Yrotation Zrotation
						End Site
						{
							OFFSET 0.000000 16.616566 0.000000
						}
					}
				}
			}
		}
	}
}
MOTION
Frames: 4
Frame Time: 0.033333
5.960073 77.539886 -2.180245 -12.162380 -56.857148 -8.830543 22.414838 2.896692 -2.130648 7.928992 1.186821 -0.394232 7.921544 1.235597 -0.402366 4.749028 12.874827 -7.113345 -3.403533 31.453646 -15.271459 0.000001 -0.000000 -0.000000 0.843919 -14.529421 -7.040772 -18.985462 4.847302 -56.952498 0.000107 -84.054835 0.000049 27.694361 -3.473103 8.766512 -0.053300 5.013282 7.154767 -0.966480 24.316804 1.395922 2.118656 48.833127 18.258351 -0.000000 -0.000003 -0.000001 8.174557 7.083506 -83.174458 8.017684 2.700453 -99.510699 2.519583 5.327466 -50.597847 0.000002 0.000000 -0.000002 5.344470 6.757543 -83.942465 8.136926 6.766181 -100.539094 2.972990 5.680460 -55.386270 0.000003 -0.000001 0.000003 5.692850 6.778314 -80.117224 7.476698 6.855493 -94.976485 2.513074 5.335187 -50.596419 -0.000005 -0.000003 0.000008 6.781431 6.908464 -83.985556 6.728826 6.879516 -88.728173 4.720671 6.534745 -71.659954 -0.000003 0.000002 -0.000003 0.956576 -2.498570 16.839133 -30.371327 62.600583 69.333339 -0.000005 109.131069 0.000048 -16.431955 0.421312 -8.491535 -4.787145 -7.380656 -0.969364 17.294862 -25.325365 -0.358849 8.806739 -41.914101 -4.358202 -0.000002 -0.000001 0.000001 7.105261 -6.974237 86.153937 6.794386 -6.946519 88.728010 4.766465 -6.598380 71.657475 -0.000004 -0.000006 -0.000006 6.699175 -6.943804 88.026064 8.101402 -6.852340 99.576119 2.550192 -5.371419 50.593615 -0.000001 -0.000000 -0.000004 5.894430 -6.916553 88.045250 8.096939 -6.853056 99.538710 3.013419 -5.718818 55.383651 0.000001 0.000003 -0.000003 4.179019 -6.668968 83.200617 8.100948 -6.852398 99.572670 2.543873 -5.379265 50.593848 -0.000004 0.000000 -0.000003 -28.191648 6.481201 27.442616 43.268634 -8.149367 2.018614 -7.334081 4.123593 -21.033463 -0.906383 -0.000020 0.000003 0.000000 -0.000003 -0.000000 -10.211168 -12.259378 -24.961196 49.622533 12.780150 -0.195481 -34.207189 -6.074002 12.120487 -0.000005 0.000036 -0.000005 -0.000000 -0.000000 -0.000000 
5.962779 77.549149 -2.173469 -12.109148 -56.891443 -8.841991 22.394167 2.964485 -2.192204 7.920592 1.216701 -0.406056 7.912663 1.267678 -0.414484 4.733051 12.872145 -7.081810 -3.593328 31.457085 -15.173125 0.000001 -0.000000 0.000000 0.889767 -14.448900 -6.596945 -18.837795 4.720330 -57.144559 -0.000370 -83.703948 -0.000367 26.872225 -3.184476 9.186515 -0.053297 5.013280 7.154761 -0.966473 24.316804 1.395924 2.118658 48.833131 18.258356 0.000001 0.000007 0.000001 8.174553 7.083506 -83.174458 8.017684 2.700447 -99.510693 2.519576 5.327466 -50.597850 -0.000001 0.000002 0.000001 5.344473 6.757540 -83.942472 8.136922 6.766180 -100.539101 2.972992 5.680460 -55.386270 0.000005 0.000001 0.000003 5.692849 6.778309 -80.117224 7.476692 6.855495 -94.976485 2.513065 5.335187 -50.596423 -0.000003 0.000000 0.000009 6.781430 6.908460 -83.985556 6.728825 6.879509 -88.728173 4.720675 6.534750 -71.659947 0.000001 -0.000006 -0.000001 0.974274 -2.463747 17.190582 -29.767966 62.610773 68.459211 0.000011 109.208714 0.000008 -16.911029 0.547537 -8.269399 -4.787146 -7.380654 -0.969365 17.294864 -25.325366 -0.358850 8.806736 -41.914098 -4.358197 -0.000000 0.000000 0.000004 7.105258 -6.974235 86.153937 6.794372 -6.946523 88.728003 4.766463 -6.598378 71.657482 -0.000001 -0.000001 -0.000001 6.699173 -6.943807 88.026064 8.101398 -6.852335 99.576126 2.550193 -5.371415 50.593605 -0.000003 -0.000002 -0.000001 5.894429 -6.916554 88.045250 8.096939 -6.853057 99.538717 3.013419 -5.718821 55.383651 -0.000005 -0.000001 -0.000003 4.179018 -6.668969 83.200617 8.100954 -6.852398 99.572663 2.543875 -5.379261 50.593848 -0.000000 -0.000002 0.000002 -28.238488 6.495980 27.523152 43.304622 -8.113104 2.006459 -7.350105 4.127822 -21.025882 -0.902919 0.000019 -0.000006 -0.000000 -0.000000 -0.000000 -10.208314 -12.220271 -24.845465 49.578219 12.789183 -0.205345 -34.167017 -6.177430 12.090849 -0.000023 0.000002 -0.000005 0.000000 0.000002 0.000000 
5.972171 77.573235 -2.160450 -12.006734 -56.908685 -8.757225 22.357526 3.021681 -2.272645 7.905478 1.241449 -0.430908 7.897278 1.293003 -0.439563 4.691053 12.867001 -7.074556 -3.731335 31.453656 -15.186598 0.000000 -0.000000 -0.000000 0.922861 -14.365761 -6.269639 -18.756803 4.808483 -57.545471 0.000215 -83.177764 0.000185 27.310826 -2.987691 10.770955 -0.053298 5.013284 7.154764 -0.966475 24.316804 1.395924 2.118655 48.833124 18.258358 0.000000 0.000001 0.000000 8.174558 7.083507 -83.174451 8.017678 2.700448 -99.510706 2.519578 5.327461 -50.597850 0.000001 0.000001 -0.000007 5.344471 6.757545 -83.942478 8.136926 6.766180 -100.539101 2.972998 5.680462 -55.386270 -0.000001 0.000005 0.000005 5.692848 6.778316 -80.117224 7.476695 6.855489 -94.976485 2.513068 5.335185 -50.596423 -0.000003 -0.000001 0.000009 6.781434 6.908462 -83.985556 6.728828 6.879515 -88.728173 4.720669 6.534748 -71.659954 -0.000000 0.000001 -0.000001 0.986425 -2.431938 17.436850 -29.272750 62.620622 67.811382 -0.000069 109.318052 0.000092 -17.284009 0.643175 -8.231313 -4.787145 -7.380655 -0.969365 17.294864 -25.325368 -0.358850 8.806736 -41.914094 -4.358197 -0.000001 0.000000 0.000001 7.105261 -6.974231 86.153930 6.794373 -6.946521 88.728003 4.766463 -6.598382 71.657482 -0.000001 0.000000 0.000001 6.699173 -6.943806 88.026064 8.101402 -6.852339 99.576112 2.550195 -5.371422 50.593609 0.000002 0.000000 -0.000001 5.894429 -6.916552 88.045250 8.096943 -6.853057 99.538710 3.013416 -5.718816 55.383648 0.000001 -0.000000 -0.000003 4.179018 -6.668967 83.200624 8.100952 -6.852398 99.572663 2.543874 -5.379258 50.593848 -0.000002 -0.000002 0.000002 -28.259247 6.478223 27.490745 43.246825 -8.115690 2.001241 -7.334740 4.124630 -21.020230 -0.932458 -0.000038 0.000002 -0.000000 -0.000000 -0.000000 -10.285134 -12.253357 -24.872639 49.511116 12.874208 -0.163127 -34.104207 -6.179693 12.033233 -0.000012 -0.000014 -0.000006 -0.000000 0.000000 -0.000000 
5.990995 77.620560 -2.145469 -11.839770 -57.030068 -8.723349 22.309957 3.063256 -2.388080 7.885713 1.260840 -0.471367 7.877498 1.311586 -0.480159 4.636806 12.862727 -7.092585 -3.887706 31.437045 -15.216534 -0.000000 -0.000000 -0.000001 0.935509 -14.301982 -6.079492 -18.726471 5.029750 -58.150298 0.000284 -82.700634 0.000285 27.213815 -2.510778 12.863625 -0.053297 5.013280 7.154759 -0.966476 24.316805 1.395926 2.118657 48.833127 18.258363 0.000001 0.000004 0.000001 8.174560 7.083507 -83.174458 8.017678 2.700446 -99.510699 2.519577 5.327460 -50.597847 -0.000001 0.000002 0.000001 5.344474 6.757542 -83.942472 8.136928 6.766183 -100.539094 2.972994 5.680466 -55.386267 -0.000003 0.000002 0.000003 5.692852 6.778316 -80.117231 7.476697 6.855497 -94.976492 2.513072 5.335186 -50.596419 -0.000001 0.000001 0.000004 6.781431 6.908459 -83.985563 6.728825 6.879509 -88.728180 4.720675 6.534743 -71.659947 0.000002 0.000001 0.000003 0.989802 -2.388151 17.539308 -28.972986 62.602748 67.505027 0.000007 109.423285 -0.000002 -17.528419 0.750093 -8.310669 -4.787144 -7.380657 -0.969367 17.294864 -25.325368 -0.358852 8.806733 -41.914101 -4.358195 -0.000001 -0.000001 -0.000000 7.105265 -6.974234 86.153930 6.794381 -6.946523 88.728003 4.766469 -6.598380 71.657482 -0.000000 -0.000002 0.000003 6.699175 -6.943806 88.026064 8.101398 -6.852335 99.576119 2.550196 -5.371420 50.593612 -0.000002 -0.000000 -0.000007 5.894430 -6.916555 88.045250 8.096938 -6.853057 99.538710 3.013418 -5.718819 55.383648 0.000001 -0.000002 -0.000007 4.179018 -6.668969 83.200617 8.100948 -6.852402 99.572663 2.543876 -5.379255 50.593851 0.000002 -0.000003 0.000004 -28.312857 6.470918 27.607415 43.216232 -8.069872 1.980113 -7.353232 4.135051 -21.032277 -0.923583 -0.000009 -0.000006 0.000000 -0.000000 -0.000000 -10.386012 -12.164171 -24.712625 49.363208 12.794035 -0.190973 -33.927103 -6.164797 12.095667 -0.000033 -0.000007 -0.000000 0.000000 -0.000000 0.000000 
